# xmcd
#
# Track frame offsets:
#	150
#	16375
#	33097
#	50119
#	62910
#	75512
#	92797
#	106014
#	121812
#	134115
#	150199
#	166064
#	181866
#	201169
#	215212
#	232596
#	250839
#	267252
#	286900
#	303774
#
# Disc length: 4196 seconds
#
# Revision: 4
# Processed by: cddbd v1.5.2PL0 Copyright (c) Steve Scherf et al.
# Submitted via: audiograbber 1.83.01
#
DISCID=03106214
DTITLE=Various Artist - 100 Hits - Country Greats [Disc 5]
DYEAR=2015
DGENRE=Country
TTITLE0=Patty Loveless - Blame It On Your Heart
TTITLE1=Mary Chapin Carpenter - Shut Up And Kiss Me
TTITLE2=Martina McBride - Wild Angels
TTITLE3=Shenandoah - If Bubba Can Dance (I Can Too)
TTITLE4=Willie Nelson - Blue Eyes Crying In The Rain
TTITLE5=K.T. Oslin - Come Next Monday
TTITLE6=Don Williams - One Good Well
TTITLE7=Clint Black - Nobody's Home
TTITLE8=Ken Mellons - Jukebox Junkie
TTITLE9=Joy Lynn White - True Confessions
TTITLE10=Rick Treviño - Learning As You Go
TTITLE11=Brooks and Dunn - My Maria
TTITLE12=Mindy McCready - Oh Romeo
TTITLE13=Rick Treviño - Running Out Of Reasons To Run
TTITLE14=Kenny Chesney - You Had Me From Hello
TTITLE15=Travis Tritt - It's A Great Day To Be Alive
TTITLE16=Brooks and Dunn - Ain't Nothing 'Bout You
TTITLE17=Montgomery Gentry - She Couldn't Change Me
TTITLE18=Lonestar - My Front Porch Looking In
TTITLE19=Alan Jackson - She's Got The Rhythm (And I Got The Blues)
EXTD=
EXTT0=
EXTT1=
EXTT2=
EXTT3=
EXTT4=
EXTT5=
EXTT6=
EXTT7=
EXTT8=
EXTT9=
EXTT10=
EXTT11=
EXTT12=
EXTT13=
EXTT14=
EXTT15=
EXTT16=
EXTT17=
EXTT18=
EXTT19=
PLAYORDER=
